<svg xmlns="http://www.w3.org/2000/svg" xmlns:xlink="http://www.w3.org/1999/xlink" width="150" zoomAndPan="magnify" viewBox="0 0 112.5 112.499997" height="150" preserveAspectRatio="xMidYMid meet" version="1.0"><defs><filter x="0%" y="0%" width="100%" height="100%" id="a04b83b196"><feColorMatrix values="0 0 0 0 1 0 0 0 0 1 0 0 0 0 1 0 0 0 1 0" color-interpolation-filters="sRGB"/></filter><clipPath id="c4c1557d49"><path d="M 14.28125 25.867188 L 111 25.867188 L 111 99.734375 L 14.28125 99.734375 Z M 14.28125 25.867188 " clip-rule="nonzero"/></clipPath><clipPath id="dc3a27e2be"><path d="M 42.613281 25.867188 L 107.523438 25.867188 C 108.558594 25.867188 109.535156 26.363281 110.140625 27.207031 C 110.75 28.046875 110.914062 29.132812 110.585938 30.117188 L 88.796875 95.484375 C 87.949219 98.019531 85.574219 99.734375 82.898438 99.734375 L 17.992188 99.734375 C 16.953125 99.734375 15.980469 99.234375 15.371094 98.390625 C 14.765625 97.550781 14.601562 96.46875 14.929688 95.484375 L 36.71875 30.117188 C 37.5625 27.578125 39.9375 25.867188 42.613281 25.867188 Z M 42.613281 25.867188 " clip-rule="nonzero"/></clipPath><mask id="f7127b4873"><g filter="url(#a04b83b196)"><rect x="-11.25" width="135" fill="#000000" y="-11.25" height="134.999996" fill-opacity="0.8"/></g></mask><clipPath id="6905e45353"><path d="M 1 0.269531 L 97.71875 0.269531 L 97.71875 74.136719 L 1 74.136719 Z M 1 0.269531 " clip-rule="nonzero"/></clipPath><clipPath id="021345832f"><path d="M 29.101562 0.269531 L 94.011719 0.269531 C 95.046875 0.269531 96.023438 0.769531 96.628906 1.609375 C 97.238281 2.453125 97.402344 3.535156 97.074219 4.519531 L 75.285156 69.886719 C 74.4375 72.425781 72.0625 74.136719 69.386719 74.136719 L 4.480469 74.136719 C 3.441406 74.136719 2.46875 73.636719 1.859375 72.796875 C 1.253906 71.953125 1.089844 70.871094 1.417969 69.886719 L 23.207031 4.519531 C 24.050781 1.980469 26.425781 0.269531 29.101562 0.269531 Z M 29.101562 0.269531 " clip-rule="nonzero"/></clipPath><clipPath id="8529c890b6"><rect x="0" width="99" y="0" height="75"/></clipPath></defs><g clip-path="url(#c4c1557d49)"><g clip-path="url(#dc3a27e2be)"><path fill="#e8a625" d="M 13.511719 25.867188 L 112.003906 25.867188 L 112.003906 99.734375 L 13.511719 99.734375 Z M 13.511719 25.867188 " fill-opacity="1" fill-rule="nonzero"/></g></g><g mask="url(#f7127b4873)"><g transform="matrix(1, 0, 0, 1, 0, 12)"><g clip-path="url(#8529c890b6)"><g clip-path="url(#6905e45353)"><g clip-path="url(#021345832f)"><path fill="#f5c965" d="M 0 0.269531 L 98.488281 0.269531 L 98.488281 74.136719 L 0 74.136719 Z M 0 0.269531 " fill-opacity="1" fill-rule="nonzero"/></g></g></g></g></g></svg>